<svg id="Layer_1" data-name="Layer 1" xmlns="http://www.w3.org/2000/svg" viewBox="0 0 216 216"><title>Program Icons</title><circle cx="110.83" cy="105.65" r="97.55" style="fill:#fff"/><path d="M109.25,141.14V75.71C105.12,72.37,85.38,57.77,61.89,63v64.18a55,55,0,0,1,9-.71A56.54,56.54,0,0,1,109.25,141.14Z" style="fill:#6f42c1"/><path d="M112.83,140.93c6.37-5.89,22.25-17.31,47.79-14.83V63c-5.35-1-26.1-3.3-47.79,13.08Z" style="fill:#6f42c1"/><path d="M108,7.2A100.8,100.8,0,1,0,208.8,108,100.8,100.8,0,0,0,108,7.2Zm64.51,134s-30.07-12.62-61.26,16c0,0-26.18-26.48-60-16.42V69.92s1.41-3.17,7.05-2.58V61.58a1.79,1.79,0,0,1,1.35-1.73c25.58-6.49,46.59,8.79,51.66,12.91,26.27-19.46,50.52-13.19,51.56-12.91a1.79,1.79,0,0,1,1.32,1.73v6.6c2.15-.56,5.79-1.12,8.31.56Z" style="fill:#6f42c1"/></svg>